<mxfile host="www.draw.io" modified="2020-02-09T21:41:58.838Z" agent="Mozilla/5.0 (Windows NT 6.3) AppleWebKit/537.36 (KHTML, like Gecko) Chrome/79.0.3945.117 YaBrowser/20.2.0.1043 Yowser/2.5 Safari/537.36" etag="9RrXyW9ypCtI9yB3RYBm" version="12.6.6" type="github" pages="2">
  <diagram id="BVMoY4dX869Am769o8fS" name="Page-1">
    <mxGraphModel dx="2410" dy="1856" grid="1" gridSize="10" guides="1" tooltips="1" connect="1" arrows="1" fold="1" page="1" pageScale="1" pageWidth="827" pageHeight="1169" math="0" shadow="0">
      <root>
        <mxCell id="0"/>
        <mxCell id="1" parent="0"/>
        <mxCell id="bZES1XaMDYMjE7JODPtY-9" value="" style="edgeStyle=orthogonalEdgeStyle;rounded=0;orthogonalLoop=1;jettySize=auto;html=1;entryX=0.877;entryY=1.005;entryDx=0;entryDy=0;entryPerimeter=0;" parent="1" source="bZES1XaMDYMjE7JODPtY-4" target="bZES1XaMDYMjE7JODPtY-7" edge="1">
          <mxGeometry relative="1" as="geometry">
            <mxPoint x="760" y="230" as="targetPoint"/>
            <Array as="points">
              <mxPoint x="768" y="270"/>
              <mxPoint x="768" y="270"/>
            </Array>
          </mxGeometry>
        </mxCell>
        <mxCell id="pQHDQ8TSMMg8cVSKProe-7" value="" style="edgeStyle=orthogonalEdgeStyle;rounded=0;orthogonalLoop=1;jettySize=auto;html=1;entryX=0.5;entryY=0;entryDx=0;entryDy=0;" edge="1" parent="1" source="bZES1XaMDYMjE7JODPtY-4" target="pQHDQ8TSMMg8cVSKProe-8">
          <mxGeometry relative="1" as="geometry">
            <mxPoint x="440" y="470" as="targetPoint"/>
            <Array as="points"/>
          </mxGeometry>
        </mxCell>
        <mxCell id="bZES1XaMDYMjE7JODPtY-4" value="&lt;table border=&quot;1&quot; width=&quot;100%&quot; cellpadding=&quot;4&quot; style=&quot;width: 100% ; height: 100% ; border-collapse: collapse&quot;&gt;&lt;tbody&gt;&lt;tr&gt;&lt;th align=&quot;center&quot;&gt;Главная&lt;/th&gt;&lt;/tr&gt;&lt;tr&gt;&lt;td align=&quot;center&quot;&gt;Биты&lt;br&gt;Поиск и задачи&lt;br&gt;Медиа&amp;nbsp;&lt;br&gt;Социальная сеть&lt;/td&gt;&lt;/tr&gt;&lt;tr&gt;&lt;td align=&quot;center&quot;&gt;Дата&lt;br&gt;Логин&lt;br&gt;QR код&lt;br&gt;&lt;/td&gt;&lt;/tr&gt;&lt;/tbody&gt;&lt;/table&gt;" style="text;html=1;strokeColor=none;fillColor=none;overflow=fill;" parent="1" vertex="1">
          <mxGeometry x="710" y="290" width="110" height="160" as="geometry"/>
        </mxCell>
        <mxCell id="pQHDQ8TSMMg8cVSKProe-4" value="" style="edgeStyle=orthogonalEdgeStyle;rounded=0;orthogonalLoop=1;jettySize=auto;html=1;" edge="1" parent="1" source="bZES1XaMDYMjE7JODPtY-7" target="pQHDQ8TSMMg8cVSKProe-3">
          <mxGeometry relative="1" as="geometry"/>
        </mxCell>
        <mxCell id="pQHDQ8TSMMg8cVSKProe-11" value="" style="edgeStyle=orthogonalEdgeStyle;rounded=0;orthogonalLoop=1;jettySize=auto;html=1;" edge="1" parent="1" source="bZES1XaMDYMjE7JODPtY-7" target="pQHDQ8TSMMg8cVSKProe-10">
          <mxGeometry relative="1" as="geometry"/>
        </mxCell>
        <mxCell id="pQHDQ8TSMMg8cVSKProe-13" value="" style="edgeStyle=orthogonalEdgeStyle;rounded=0;orthogonalLoop=1;jettySize=auto;html=1;entryX=0.383;entryY=1.004;entryDx=0;entryDy=0;entryPerimeter=0;" edge="1" parent="1" source="bZES1XaMDYMjE7JODPtY-7">
          <mxGeometry relative="1" as="geometry">
            <mxPoint x="759.5799999999999" y="-68.95920000000001" as="targetPoint"/>
            <Array as="points">
              <mxPoint x="760" y="-20"/>
              <mxPoint x="760" y="-20"/>
            </Array>
          </mxGeometry>
        </mxCell>
        <mxCell id="bZES1XaMDYMjE7JODPtY-7" value="&lt;table border=&quot;1&quot; width=&quot;100%&quot; cellpadding=&quot;4&quot; style=&quot;width: 100% ; height: 100% ; border-collapse: collapse&quot; align=&quot;left&quot;&gt;&lt;tbody&gt;&lt;tr&gt;&lt;th align=&quot;center&quot;&gt;Страница битов&lt;/th&gt;&lt;/tr&gt;&lt;tr&gt;&lt;td align=&quot;center&quot;&gt;&lt;ol&gt;&lt;li&gt;БЛОК&lt;/li&gt;&lt;li&gt;Общ + личн кол-во ключей&lt;/li&gt;&lt;li&gt;График цен&lt;/li&gt;&lt;li&gt;Рублевый счет&lt;/li&gt;&lt;li&gt;NFC &amp;gt;&lt;/li&gt;&lt;li&gt;Перевод по логину,почте или QR&lt;/li&gt;&lt;li&gt;RESERVE&lt;/li&gt;&lt;/ol&gt;&lt;br&gt;&lt;/td&gt;&lt;/tr&gt;&lt;tr&gt;&lt;td align=&quot;center&quot;&gt;Система ключей загорающихся в блоке&lt;/td&gt;&lt;/tr&gt;&lt;/tbody&gt;&lt;/table&gt;" style="text;html=1;strokeColor=none;fillColor=none;overflow=fill;" parent="1" vertex="1">
          <mxGeometry x="540" y="-0.2" width="260" height="210.2" as="geometry"/>
        </mxCell>
        <mxCell id="pQHDQ8TSMMg8cVSKProe-10" value="&lt;table border=&quot;1&quot; width=&quot;100%&quot; cellpadding=&quot;4&quot; style=&quot;width: 100% ; height: 100% ; border-collapse: collapse&quot; align=&quot;left&quot;&gt;&lt;tbody&gt;&lt;tr&gt;&lt;th align=&quot;center&quot;&gt;Страница битов&lt;/th&gt;&lt;/tr&gt;&lt;tr&gt;&lt;td align=&quot;center&quot;&gt;&lt;div&gt;&lt;br&gt;&lt;/div&gt;&lt;br&gt;&lt;/td&gt;&lt;/tr&gt;&lt;tr&gt;&lt;td align=&quot;center&quot;&gt;&lt;br&gt;&lt;/td&gt;&lt;/tr&gt;&lt;/tbody&gt;&lt;/table&gt;" style="text;html=1;strokeColor=none;fillColor=none;overflow=fill;" vertex="1" parent="1">
          <mxGeometry x="880" y="-0.2" width="240" height="210.2" as="geometry"/>
        </mxCell>
        <mxCell id="pQHDQ8TSMMg8cVSKProe-15" value="" style="edgeStyle=orthogonalEdgeStyle;rounded=0;orthogonalLoop=1;jettySize=auto;html=1;" edge="1" parent="1" source="pQHDQ8TSMMg8cVSKProe-3" target="pQHDQ8TSMMg8cVSKProe-14">
          <mxGeometry relative="1" as="geometry">
            <Array as="points">
              <mxPoint x="300" y="-20"/>
              <mxPoint x="300" y="-20"/>
            </Array>
          </mxGeometry>
        </mxCell>
        <mxCell id="pQHDQ8TSMMg8cVSKProe-3" value="&lt;table border=&quot;1&quot; width=&quot;100%&quot; cellpadding=&quot;4&quot; style=&quot;width: 100% ; height: 100% ; border-collapse: collapse&quot;&gt;&lt;tbody&gt;&lt;tr&gt;&lt;th align=&quot;center&quot;&gt;Блок(1) +Счета(2)+ График(3)+Рублевый счет(4)&lt;/th&gt;&lt;/tr&gt;&lt;tr&gt;&lt;td align=&quot;center&quot;&gt;Код блока + SQL +&amp;nbsp;&lt;/td&gt;&lt;/tr&gt;&lt;tr&gt;&lt;td style=&quot;text-align: center&quot;&gt;&lt;br&gt;&lt;/td&gt;&lt;/tr&gt;&lt;tr&gt;&lt;td&gt;&lt;br&gt;&lt;/td&gt;&lt;/tr&gt;&lt;tr&gt;&lt;td&gt;&lt;br&gt;&lt;/td&gt;&lt;/tr&gt;&lt;tr&gt;&lt;td&gt;&lt;br&gt;&lt;/td&gt;&lt;/tr&gt;&lt;/tbody&gt;&lt;/table&gt;" style="text;html=1;strokeColor=none;fillColor=none;overflow=fill;" vertex="1" parent="1">
          <mxGeometry x="80" y="-0.2" width="380" height="210.2" as="geometry"/>
        </mxCell>
        <mxCell id="pQHDQ8TSMMg8cVSKProe-8" value="&lt;table border=&quot;1&quot; width=&quot;100%&quot; cellpadding=&quot;4&quot; style=&quot;width: 100% ; height: 100% ; border-collapse: collapse&quot;&gt;&lt;tbody&gt;&lt;tr&gt;&lt;th align=&quot;center&quot;&gt;Сервер&lt;/th&gt;&lt;/tr&gt;&lt;tr&gt;&lt;td align=&quot;center&quot;&gt;Section 1.1&lt;br&gt;Section 1.2&lt;br&gt;Section 1.3&lt;/td&gt;&lt;/tr&gt;&lt;tr&gt;&lt;td align=&quot;center&quot;&gt;Section 2.1&lt;br&gt;Section 2.2&lt;br&gt;Section 2.3&lt;/td&gt;&lt;/tr&gt;&lt;/tbody&gt;&lt;/table&gt;" style="text;html=1;strokeColor=none;fillColor=none;overflow=fill;" vertex="1" parent="1">
          <mxGeometry x="587.5" y="830" width="355" height="260" as="geometry"/>
        </mxCell>
        <mxCell id="pQHDQ8TSMMg8cVSKProe-14" value="&lt;table border=&quot;1&quot; width=&quot;100%&quot; cellpadding=&quot;4&quot; style=&quot;width: 100% ; height: 100% ; border-collapse: collapse&quot;&gt;&lt;tbody&gt;&lt;tr style=&quot;background-color: #a7c942 ; color: #ffffff ; border: 1px solid #98bf21&quot;&gt;&lt;td&gt;&lt;br&gt;&lt;/td&gt;&lt;th align=&quot;left&quot;&gt;NFC&lt;/th&gt;&lt;th align=&quot;left&quot;&gt;QR&lt;/th&gt;&lt;th align=&quot;left&quot;&gt;RESERVE&lt;/th&gt;&lt;td&gt;Из логина&lt;/td&gt;&lt;td&gt;Из почты&lt;/td&gt;&lt;/tr&gt;&lt;tr style=&quot;border: 1px solid #98bf21&quot;&gt;&lt;td&gt;PAY&lt;/td&gt;&lt;td&gt;Android , IOS &amp;gt;&lt;/td&gt;&lt;td&gt;Android + IOS &amp;gt;&lt;/td&gt;&lt;td&gt;All &amp;gt;&lt;/td&gt;&lt;td&gt;All &amp;gt;&lt;/td&gt;&lt;td&gt;All &amp;gt;&lt;br&gt;&lt;/td&gt;&lt;/tr&gt;&lt;tr style=&quot;background-color: #eaf2d3 ; border: 1px solid #98bf21&quot;&gt;&lt;td&gt;ACCEPT&lt;/td&gt;&lt;td&gt;All &amp;lt;&lt;/td&gt;&lt;td&gt;All &amp;lt;&lt;/td&gt;&lt;td&gt;All &amp;lt;&lt;/td&gt;&lt;td&gt;All &amp;lt;&lt;/td&gt;&lt;td&gt;All &amp;lt;&lt;/td&gt;&lt;/tr&gt;&lt;tr style=&quot;border: 1px solid #98bf21&quot;&gt;&lt;td&gt;&lt;br&gt;&lt;/td&gt;&lt;td&gt;&lt;br&gt;&lt;/td&gt;&lt;td&gt;&lt;br&gt;&lt;/td&gt;&lt;td&gt;&lt;br&gt;&lt;/td&gt;&lt;td&gt;&lt;br&gt;&lt;/td&gt;&lt;td&gt;&lt;br&gt;&lt;/td&gt;&lt;/tr&gt;&lt;tr style=&quot;background-color: #eaf2d3 ; border: 1px solid #98bf21&quot;&gt;&lt;td&gt;&lt;br&gt;&lt;/td&gt;&lt;td&gt;&lt;br&gt;&lt;/td&gt;&lt;td&gt;&lt;br&gt;&lt;/td&gt;&lt;td&gt;&lt;br&gt;&lt;/td&gt;&lt;td&gt;&lt;br&gt;&lt;/td&gt;&lt;td&gt;&lt;br&gt;&lt;/td&gt;&lt;/tr&gt;&lt;/tbody&gt;&lt;/table&gt;" style="text;html=1;strokeColor=#c0c0c0;fillColor=#ffffff;overflow=fill;rounded=0;" vertex="1" parent="1">
          <mxGeometry x="-60" y="-319.8" width="659.62" height="250" as="geometry"/>
        </mxCell>
        <mxCell id="pQHDQ8TSMMg8cVSKProe-16" value="&lt;table border=&quot;1&quot; width=&quot;100%&quot; cellpadding=&quot;4&quot; style=&quot;width: 100% ; height: 100% ; border-collapse: collapse&quot;&gt;&lt;tbody&gt;&lt;tr style=&quot;background-color: #a7c942 ; color: #ffffff ; border: 1px solid #98bf21&quot;&gt;&lt;th align=&quot;left&quot;&gt;BUY BIT&lt;/th&gt;&lt;th align=&quot;left&quot;&gt;SEEL BIT&lt;/th&gt;&lt;/tr&gt;&lt;tr style=&quot;border: 1px solid #98bf21&quot;&gt;&lt;td&gt;Value 1&lt;/td&gt;&lt;td&gt;Value 2&lt;/td&gt;&lt;/tr&gt;&lt;tr style=&quot;background-color: #eaf2d3 ; border: 1px solid #98bf21&quot;&gt;&lt;td&gt;Value 4&lt;/td&gt;&lt;td&gt;Value 5&lt;/td&gt;&lt;/tr&gt;&lt;tr style=&quot;border: 1px solid #98bf21&quot;&gt;&lt;td&gt;Value 7&lt;/td&gt;&lt;td&gt;Value 8&lt;/td&gt;&lt;/tr&gt;&lt;tr style=&quot;background-color: #eaf2d3 ; border: 1px solid #98bf21&quot;&gt;&lt;td&gt;Value 10&lt;/td&gt;&lt;td&gt;Value 11&lt;/td&gt;&lt;/tr&gt;&lt;/tbody&gt;&lt;/table&gt;" style="text;html=1;strokeColor=#c0c0c0;fillColor=#ffffff;overflow=fill;rounded=0;" vertex="1" parent="1">
          <mxGeometry x="640" y="-320" width="280" height="250" as="geometry"/>
        </mxCell>
      </root>
    </mxGraphModel>
  </diagram>
  <diagram id="EQS8e7ljplrb_CQviWXu" name="Page-2">
    <mxGraphModel dx="868" dy="481" grid="1" gridSize="10" guides="1" tooltips="1" connect="1" arrows="1" fold="1" page="1" pageScale="1" pageWidth="827" pageHeight="1169" math="0" shadow="0">
      <root>
        <mxCell id="-jsiAW2IG8DChyaYwsl0-0"/>
        <mxCell id="-jsiAW2IG8DChyaYwsl0-1" parent="-jsiAW2IG8DChyaYwsl0-0"/>
      </root>
    </mxGraphModel>
  </diagram>
</mxfile>
